<mxfile host="app.diagrams.net" agent="Mozilla/5.0 (Windows NT 10.0; Win64; x64) AppleWebKit/537.36 (KHTML, like Gecko) Chrome/133.0.0.0 Safari/537.36" version="26.0.14">
  <diagram name="Page-1" id="6omzIt5ZalCPaTLZVX9T">
    <mxGraphModel dx="989" dy="532" grid="1" gridSize="10" guides="1" tooltips="1" connect="1" arrows="1" fold="1" page="1" pageScale="1" pageWidth="827" pageHeight="1169" math="0" shadow="0">
      <root>
        <mxCell id="0" />
        <mxCell id="1" parent="0" />
        <mxCell id="FAsdpCJdep6tZkefujxq-3" style="edgeStyle=orthogonalEdgeStyle;rounded=0;orthogonalLoop=1;jettySize=auto;html=1;exitX=0.5;exitY=1;exitDx=0;exitDy=0;entryX=0.5;entryY=0;entryDx=0;entryDy=0;" edge="1" parent="1" source="FAsdpCJdep6tZkefujxq-1" target="FAsdpCJdep6tZkefujxq-2">
          <mxGeometry relative="1" as="geometry" />
        </mxCell>
        <mxCell id="FAsdpCJdep6tZkefujxq-1" value="Original Variables" style="rounded=1;whiteSpace=wrap;html=1;fillColor=#fff2cc;strokeColor=#d6b656;" vertex="1" parent="1">
          <mxGeometry x="240" y="80" width="260" height="20" as="geometry" />
        </mxCell>
        <mxCell id="FAsdpCJdep6tZkefujxq-8" style="edgeStyle=orthogonalEdgeStyle;rounded=0;orthogonalLoop=1;jettySize=auto;html=1;exitX=0.5;exitY=1;exitDx=0;exitDy=0;entryX=0.5;entryY=0;entryDx=0;entryDy=0;" edge="1" parent="1" source="FAsdpCJdep6tZkefujxq-2" target="FAsdpCJdep6tZkefujxq-6">
          <mxGeometry relative="1" as="geometry" />
        </mxCell>
        <mxCell id="FAsdpCJdep6tZkefujxq-2" value="Preprocessing Layer (missing values handling)" style="rounded=1;whiteSpace=wrap;html=1;fillColor=#dae8fc;strokeColor=#6c8ebf;" vertex="1" parent="1">
          <mxGeometry x="240" y="120" width="260" height="20" as="geometry" />
        </mxCell>
        <mxCell id="FAsdpCJdep6tZkefujxq-6" value="Principal Component Analysis" style="rounded=1;whiteSpace=wrap;html=1;fillColor=#d5e8d4;strokeColor=#82b366;" vertex="1" parent="1">
          <mxGeometry x="240" y="160" width="260" height="20" as="geometry" />
        </mxCell>
        <mxCell id="FAsdpCJdep6tZkefujxq-9" value="&lt;p class=&quot;MsoNormal&quot;&gt;PC&lt;sub&gt;1&lt;/sub&gt;&lt;/p&gt;" style="rounded=1;whiteSpace=wrap;html=1;fillColor=#d5e8d4;strokeColor=#82b366;" vertex="1" parent="1">
          <mxGeometry x="240" y="200" width="40" height="20" as="geometry" />
        </mxCell>
        <mxCell id="FAsdpCJdep6tZkefujxq-13" value="&lt;p class=&quot;MsoNormal&quot;&gt;PC&lt;sub&gt;n&lt;/sub&gt;&lt;/p&gt;" style="rounded=1;whiteSpace=wrap;html=1;fillColor=#d5e8d4;strokeColor=#82b366;" vertex="1" parent="1">
          <mxGeometry x="460" y="200" width="40" height="20" as="geometry" />
        </mxCell>
        <mxCell id="FAsdpCJdep6tZkefujxq-16" value="&lt;p class=&quot;MsoNormal&quot;&gt;PC&lt;sub&gt;k&lt;/sub&gt;&lt;/p&gt;" style="rounded=1;whiteSpace=wrap;html=1;fillColor=#d5e8d4;strokeColor=#82b366;" vertex="1" parent="1">
          <mxGeometry x="350" y="200" width="40" height="20" as="geometry" />
        </mxCell>
        <mxCell id="FAsdpCJdep6tZkefujxq-17" value="" style="endArrow=none;dashed=1;html=1;dashPattern=1 3;strokeWidth=2;rounded=0;" edge="1" parent="1">
          <mxGeometry width="50" height="50" relative="1" as="geometry">
            <mxPoint x="290" y="210" as="sourcePoint" />
            <mxPoint x="340" y="210" as="targetPoint" />
          </mxGeometry>
        </mxCell>
        <mxCell id="FAsdpCJdep6tZkefujxq-18" value="" style="endArrow=none;dashed=1;html=1;dashPattern=1 3;strokeWidth=2;rounded=0;" edge="1" parent="1">
          <mxGeometry width="50" height="50" relative="1" as="geometry">
            <mxPoint x="400" y="209.76" as="sourcePoint" />
            <mxPoint x="450" y="209.76" as="targetPoint" />
          </mxGeometry>
        </mxCell>
        <mxCell id="FAsdpCJdep6tZkefujxq-46" style="edgeStyle=orthogonalEdgeStyle;rounded=0;orthogonalLoop=1;jettySize=auto;html=1;" edge="1" parent="1" source="FAsdpCJdep6tZkefujxq-20" target="FAsdpCJdep6tZkefujxq-45">
          <mxGeometry relative="1" as="geometry" />
        </mxCell>
        <mxCell id="FAsdpCJdep6tZkefujxq-20" value="" style="rounded=0;whiteSpace=wrap;html=1;fillColor=none;dashed=1;dashPattern=1 2;" vertex="1" parent="1">
          <mxGeometry x="230" y="150" width="280" height="160" as="geometry" />
        </mxCell>
        <mxCell id="FAsdpCJdep6tZkefujxq-19" value="&lt;h1 style=&quot;margin-top: 0px;&quot;&gt;Forecasting Framework&lt;/h1&gt;" style="text;html=1;whiteSpace=wrap;overflow=hidden;rounded=0;" vertex="1" parent="1">
          <mxGeometry x="230" y="30" width="280" height="50" as="geometry" />
        </mxCell>
        <mxCell id="FAsdpCJdep6tZkefujxq-23" value="" style="endArrow=classic;html=1;rounded=0;entryX=0.5;entryY=0;entryDx=0;entryDy=0;" edge="1" parent="1" target="FAsdpCJdep6tZkefujxq-9">
          <mxGeometry width="50" height="50" relative="1" as="geometry">
            <mxPoint x="260" y="180" as="sourcePoint" />
            <mxPoint x="370" y="170" as="targetPoint" />
          </mxGeometry>
        </mxCell>
        <mxCell id="FAsdpCJdep6tZkefujxq-24" value="" style="endArrow=classic;html=1;rounded=0;entryX=0.5;entryY=0;entryDx=0;entryDy=0;" edge="1" parent="1">
          <mxGeometry width="50" height="50" relative="1" as="geometry">
            <mxPoint x="369.83" y="180" as="sourcePoint" />
            <mxPoint x="369.83" y="200" as="targetPoint" />
          </mxGeometry>
        </mxCell>
        <mxCell id="FAsdpCJdep6tZkefujxq-25" value="" style="endArrow=classic;html=1;rounded=0;entryX=0.5;entryY=0;entryDx=0;entryDy=0;" edge="1" parent="1">
          <mxGeometry width="50" height="50" relative="1" as="geometry">
            <mxPoint x="479.83" y="180" as="sourcePoint" />
            <mxPoint x="479.83" y="200" as="targetPoint" />
          </mxGeometry>
        </mxCell>
        <mxCell id="FAsdpCJdep6tZkefujxq-31" value="" style="endArrow=classic;html=1;rounded=0;entryX=0.5;entryY=0;entryDx=0;entryDy=0;" edge="1" parent="1">
          <mxGeometry width="50" height="50" relative="1" as="geometry">
            <mxPoint x="259.92" y="220" as="sourcePoint" />
            <mxPoint x="259.92" y="240" as="targetPoint" />
          </mxGeometry>
        </mxCell>
        <mxCell id="FAsdpCJdep6tZkefujxq-32" value="" style="endArrow=classic;html=1;rounded=0;entryX=0.5;entryY=0;entryDx=0;entryDy=0;" edge="1" parent="1">
          <mxGeometry width="50" height="50" relative="1" as="geometry">
            <mxPoint x="369.76" y="220" as="sourcePoint" />
            <mxPoint x="369.76" y="240" as="targetPoint" />
          </mxGeometry>
        </mxCell>
        <mxCell id="FAsdpCJdep6tZkefujxq-33" value="" style="endArrow=classic;html=1;rounded=0;entryX=0.5;entryY=0;entryDx=0;entryDy=0;" edge="1" parent="1">
          <mxGeometry width="50" height="50" relative="1" as="geometry">
            <mxPoint x="479.76" y="220" as="sourcePoint" />
            <mxPoint x="479.76" y="240" as="targetPoint" />
          </mxGeometry>
        </mxCell>
        <mxCell id="FAsdpCJdep6tZkefujxq-35" value="Filtering (x% Retained Variance)" style="rounded=1;whiteSpace=wrap;html=1;fillColor=#d5e8d4;strokeColor=#82b366;" vertex="1" parent="1">
          <mxGeometry x="240" y="240" width="260" height="20" as="geometry" />
        </mxCell>
        <mxCell id="FAsdpCJdep6tZkefujxq-36" value="" style="endArrow=classic;html=1;rounded=0;entryX=0.5;entryY=0;entryDx=0;entryDy=0;" edge="1" parent="1">
          <mxGeometry width="50" height="50" relative="1" as="geometry">
            <mxPoint x="479.88" y="260" as="sourcePoint" />
            <mxPoint x="479.88" y="280" as="targetPoint" />
          </mxGeometry>
        </mxCell>
        <mxCell id="FAsdpCJdep6tZkefujxq-37" value="&lt;p class=&quot;MsoNormal&quot;&gt;PC&lt;sub&gt;k&lt;/sub&gt;&lt;/p&gt;" style="rounded=1;whiteSpace=wrap;html=1;fillColor=#d5e8d4;strokeColor=#82b366;" vertex="1" parent="1">
          <mxGeometry x="460" y="280" width="40" height="20" as="geometry" />
        </mxCell>
        <mxCell id="FAsdpCJdep6tZkefujxq-38" value="" style="endArrow=none;dashed=1;html=1;dashPattern=1 3;strokeWidth=2;rounded=0;" edge="1" parent="1">
          <mxGeometry width="50" height="50" relative="1" as="geometry">
            <mxPoint x="290" y="290" as="sourcePoint" />
            <mxPoint x="450" y="290" as="targetPoint" />
          </mxGeometry>
        </mxCell>
        <mxCell id="FAsdpCJdep6tZkefujxq-39" value="&lt;p class=&quot;MsoNormal&quot;&gt;PC&lt;sub&gt;1&lt;/sub&gt;&lt;/p&gt;" style="rounded=1;whiteSpace=wrap;html=1;fillColor=#d5e8d4;strokeColor=#82b366;" vertex="1" parent="1">
          <mxGeometry x="240" y="280" width="40" height="20" as="geometry" />
        </mxCell>
        <mxCell id="FAsdpCJdep6tZkefujxq-40" value="" style="endArrow=classic;html=1;rounded=0;entryX=0.5;entryY=0;entryDx=0;entryDy=0;" edge="1" target="FAsdpCJdep6tZkefujxq-39" parent="1">
          <mxGeometry width="50" height="50" relative="1" as="geometry">
            <mxPoint x="260" y="260" as="sourcePoint" />
            <mxPoint x="370" y="250" as="targetPoint" />
          </mxGeometry>
        </mxCell>
        <mxCell id="FAsdpCJdep6tZkefujxq-44" style="edgeStyle=orthogonalEdgeStyle;rounded=0;orthogonalLoop=1;jettySize=auto;html=1;" edge="1" parent="1" source="FAsdpCJdep6tZkefujxq-41" target="FAsdpCJdep6tZkefujxq-43">
          <mxGeometry relative="1" as="geometry" />
        </mxCell>
        <mxCell id="FAsdpCJdep6tZkefujxq-41" value="Forecasting Layer (LR, SVR, LSTM)" style="rounded=1;whiteSpace=wrap;html=1;fillColor=#f8cecc;strokeColor=#b85450;" vertex="1" parent="1">
          <mxGeometry x="240" y="370" width="260" height="20" as="geometry" />
        </mxCell>
        <mxCell id="FAsdpCJdep6tZkefujxq-42" style="edgeStyle=orthogonalEdgeStyle;rounded=0;orthogonalLoop=1;jettySize=auto;html=1;exitX=0.5;exitY=1;exitDx=0;exitDy=0;entryX=0.5;entryY=0;entryDx=0;entryDy=0;" edge="1" parent="1">
          <mxGeometry relative="1" as="geometry">
            <mxPoint x="369.92" y="350" as="sourcePoint" />
            <mxPoint x="369.92" y="370" as="targetPoint" />
          </mxGeometry>
        </mxCell>
        <mxCell id="FAsdpCJdep6tZkefujxq-43" value="Metrics Layer" style="rounded=1;whiteSpace=wrap;html=1;fillColor=#e1d5e7;strokeColor=#9673a6;" vertex="1" parent="1">
          <mxGeometry x="240" y="410" width="260" height="20" as="geometry" />
        </mxCell>
        <mxCell id="FAsdpCJdep6tZkefujxq-45" value="LSTM Reshaping Layer" style="rounded=1;whiteSpace=wrap;html=1;fillColor=#ffe6cc;strokeColor=#d79b00;" vertex="1" parent="1">
          <mxGeometry x="240" y="330" width="260" height="20" as="geometry" />
        </mxCell>
        <mxCell id="FAsdpCJdep6tZkefujxq-48" value="" style="rounded=0;whiteSpace=wrap;html=1;fillColor=none;dashed=1;dashPattern=12 12;" vertex="1" parent="1">
          <mxGeometry x="230" y="320" width="280" height="40" as="geometry" />
        </mxCell>
        <mxCell id="FAsdpCJdep6tZkefujxq-49" value="" style="endArrow=none;html=1;rounded=0;dashed=1;dashPattern=1 2;" edge="1" parent="1">
          <mxGeometry width="50" height="50" relative="1" as="geometry">
            <mxPoint x="220" y="450" as="sourcePoint" />
            <mxPoint x="255" y="450" as="targetPoint" />
          </mxGeometry>
        </mxCell>
        <mxCell id="FAsdpCJdep6tZkefujxq-50" value="" style="endArrow=none;html=1;rounded=0;dashed=1;dashPattern=12 12;" edge="1" parent="1">
          <mxGeometry width="50" height="50" relative="1" as="geometry">
            <mxPoint x="220" y="470" as="sourcePoint" />
            <mxPoint x="255" y="470" as="targetPoint" />
          </mxGeometry>
        </mxCell>
        <mxCell id="FAsdpCJdep6tZkefujxq-52" value="Dimensionality reduction section is either used or not for comparison" style="text;html=1;align=center;verticalAlign=middle;whiteSpace=wrap;rounded=0;fontSize=9;" vertex="1" parent="1">
          <mxGeometry x="255" y="440" width="280" height="20" as="geometry" />
        </mxCell>
        <mxCell id="FAsdpCJdep6tZkefujxq-53" value="Specific only to LSTM Forecasting Layer" style="text;html=1;align=center;verticalAlign=middle;whiteSpace=wrap;rounded=0;fontSize=9;" vertex="1" parent="1">
          <mxGeometry x="255" y="460" width="170" height="20" as="geometry" />
        </mxCell>
        <mxCell id="FAsdpCJdep6tZkefujxq-55" value="k - is chosen such that 95/98/99% of variance is retained" style="text;html=1;align=center;verticalAlign=middle;whiteSpace=wrap;rounded=0;fontSize=9;" vertex="1" parent="1">
          <mxGeometry x="255" y="480" width="232.5" height="20" as="geometry" />
        </mxCell>
      </root>
    </mxGraphModel>
  </diagram>
</mxfile>
